<svg width="421" height="208" viewBox="0 0 421 208" fill="none" xmlns="http://www.w3.org/2000/svg">
<path d="M47.2671 134.39C46.3805 134.39 45.9371 133.947 45.9371 133.06C45.9371 132.593 46.2638 132.243 46.9171 132.01C50.5105 131.077 53.6605 128.977 56.3671 125.71C57.3005 124.637 58.2805 123.26 59.3071 121.58C60.3338 119.9 61.4071 117.94 62.5271 115.7C59.7271 114.767 58.3271 113.647 58.3271 112.34C58.3271 111.547 58.6538 111.15 59.3071 111.15C59.7271 111.15 60.1238 111.337 60.4971 111.71C61.3838 112.597 62.3871 113.203 63.5071 113.53C64.3005 111.803 65.2338 109.563 66.3071 106.81C67.4271 104.01 68.6405 100.697 69.9471 96.87C72.4671 89.5433 74.6605 84.0367 76.5271 80.35C76.4338 80.3033 76.2471 80.28 75.9671 80.28C70.1338 80.28 65.0471 81.26 60.7071 83.22C55.0138 85.6933 52.1671 89.4033 52.1671 94.35C52.1671 95.47 52.8205 96.4733 54.1271 97.36C55.2938 98.1067 56.5305 98.48 57.8371 98.48C58.9105 98.48 59.6805 98.1767 60.1471 97.57C60.8005 96.7767 61.2438 96.38 61.4771 96.38C62.2705 96.38 62.6671 96.7533 62.6671 97.5C62.6671 97.64 62.6205 97.8033 62.5271 97.99C61.4538 99.9033 59.8905 100.86 57.8371 100.86C55.6905 100.86 53.8705 100.277 52.3771 99.11C50.6505 97.8033 49.7871 96.1233 49.7871 94.07C49.7871 88.3767 52.8205 84.1067 58.8871 81.26C63.5071 79.1133 68.9671 78.04 75.2671 78.04H77.8571C79.1638 76.0333 80.4938 75.03 81.8472 75.03C82.7338 75.03 83.1771 75.3567 83.1771 76.01C83.1771 76.3833 82.7571 76.7567 81.9171 77.13C81.2171 77.5033 80.7272 77.9 80.4471 78.32C85.3471 78.9267 89.3138 80.5833 92.3471 83.29C95.7538 86.2767 97.4571 90.1733 97.4571 94.98C97.4571 101.887 94.2371 107.37 87.7971 111.43C82.2438 114.883 75.8738 116.61 68.6871 116.61C68.0805 116.61 67.4505 116.587 66.7971 116.54C66.1905 116.493 65.5605 116.423 64.9071 116.33C62.8071 120.53 60.4271 124.24 57.7671 127.46C53.9405 132.08 50.4405 134.39 47.2671 134.39ZM68.6871 114.23C75.3605 114.23 81.2171 112.69 86.2572 109.61C92.1372 106.017 95.0772 101.14 95.0772 94.98C95.0772 90.64 93.4672 87.1867 90.2472 84.62C87.4005 82.38 83.6905 81.0267 79.1171 80.56C78.0905 82.4733 76.9938 84.83 75.8272 87.63C74.7071 90.3833 73.5405 93.58 72.3271 97.22C70.9738 101.233 69.7605 104.64 68.6871 107.44C67.6605 110.24 66.7505 112.457 65.9571 114.09C66.4238 114.137 66.8671 114.183 67.2871 114.23C67.7538 114.23 68.2205 114.23 68.6871 114.23ZM120.968 129.49C119.242 129.49 117.795 128.977 116.628 127.95C115.462 126.877 114.972 125.337 115.158 123.33C112.312 127.39 108.882 129.42 104.868 129.42C102.302 129.42 100.388 128.417 99.1284 126.41C98.1017 124.823 97.5884 122.677 97.5884 119.97C97.5884 119.457 97.6117 118.943 97.6584 118.43C97.7051 117.87 97.7751 117.333 97.8684 116.82C98.1951 114.953 98.8251 113.157 99.7584 111.43C100.692 109.657 101.905 107.907 103.398 106.18C106.758 102.4 110.235 100.51 113.828 100.51C115.742 100.51 117.328 101.07 118.588 102.19C119.848 103.263 120.478 104.78 120.478 106.74C120.478 107.533 120.268 108.303 119.848 109.05C120.828 109.097 121.225 109.54 121.038 110.38L118.798 116.75C118.052 118.85 117.678 120.763 117.678 122.49C117.678 124.077 118.005 125.313 118.658 126.2C119.358 127.087 120.292 127.53 121.458 127.53C122.112 127.53 122.835 127.343 123.628 126.97C124.422 126.597 125.332 125.967 126.358 125.08C127.058 124.473 127.712 123.797 128.318 123.05C128.972 122.303 129.532 121.557 129.998 120.81C130.278 120.39 130.582 119.993 130.908 119.62C131.235 119.2 131.562 118.99 131.888 118.99C132.448 118.99 132.728 119.293 132.728 119.9C132.728 120.133 132.682 120.367 132.588 120.6C132.542 120.787 132.472 120.927 132.378 121.02C131.772 122 131.095 122.957 130.348 123.89C129.602 124.823 128.808 125.687 127.968 126.48C126.848 127.507 125.682 128.277 124.468 128.79C123.255 129.257 122.088 129.49 120.968 129.49ZM99.9684 120.32C99.9684 124.8 101.695 127.04 105.148 127.04C108.088 127.04 110.632 125.64 112.778 122.84C113.432 121.953 114.108 120.833 114.808 119.48C115.508 118.127 116.185 116.54 116.838 114.72C117.025 114.253 117.212 113.717 117.398 113.11C117.632 112.457 117.912 111.733 118.238 110.94C117.305 111.64 116.348 111.99 115.368 111.99C113.688 111.99 112.848 111.523 112.848 110.59C112.848 109.797 113.245 109.4 114.038 109.4C114.178 109.4 114.365 109.447 114.598 109.54C114.878 109.587 115.088 109.61 115.228 109.61C115.928 109.61 116.582 109.307 117.188 108.7C117.795 108.093 118.098 107.44 118.098 106.74C118.098 104.173 116.652 102.89 113.758 102.89C110.865 102.89 107.972 104.57 105.078 107.93C102.325 111.01 100.715 114.113 100.248 117.24C100.155 117.753 100.085 118.267 100.038 118.78C99.9917 119.293 99.9684 119.807 99.9684 120.32ZM137.458 130.12C133.584 130.12 131.484 127.46 131.158 122.14C130.924 118.173 132.138 112.2 134.798 104.22C137.178 97.1267 139.534 91.48 141.868 87.28C144.621 82.2867 147.234 79.79 149.708 79.79C151.808 79.79 152.858 81.47 152.858 84.83C152.858 88.3767 151.504 92.5067 148.798 97.22C144.504 104.687 139.744 110.543 134.518 114.79C134.284 116.003 134.098 117.147 133.958 118.22C133.818 119.247 133.748 120.227 133.748 121.16C133.748 125.593 135.124 127.81 137.878 127.81C139.511 127.81 141.098 127.367 142.638 126.48C144.224 125.547 145.974 123.657 147.888 120.81C148.028 120.623 148.308 120.25 148.728 119.69C149.194 119.083 149.591 118.78 149.918 118.78C150.384 118.78 150.618 119.083 150.618 119.69C150.618 119.783 150.594 119.97 150.548 120.25C150.501 120.53 150.408 120.787 150.268 121.02C149.521 122.467 148.541 123.89 147.328 125.29C146.114 126.69 144.668 127.857 142.988 128.79C141.354 129.677 139.511 130.12 137.458 130.12ZM135.638 110.59C139.838 106.297 143.501 101.42 146.628 95.96C149.241 91.3867 150.548 87.5133 150.548 84.34C150.548 82.8467 150.221 82.1 149.568 82.1C149.101 82.1 148.471 82.4967 147.678 83.29C146.044 85.0633 144.294 88.0967 142.428 92.39C141.261 95.0033 140.118 97.8267 138.998 100.86C137.878 103.893 136.758 107.137 135.638 110.59ZM181.758 129.63C178.165 129.63 176.368 127.903 176.368 124.45C176.368 122.257 177.511 118.08 179.798 111.92C180.825 109.12 181.338 107.253 181.338 106.32C181.338 104.407 180.591 103.45 179.098 103.45C177.465 103.45 175.878 104.243 174.338 105.83C171.771 108.397 169.741 111.08 168.248 113.88C167.408 115.513 166.381 117.847 165.168 120.88C164.515 122.607 163.931 124.077 163.418 125.29C162.905 126.457 162.485 127.413 162.158 128.16C161.925 128.533 161.645 128.72 161.318 128.72C160.945 128.72 160.571 128.603 160.198 128.37C159.871 128.09 159.708 127.81 159.708 127.53C159.708 127.25 160.058 126.34 160.758 124.8C164.305 116.587 166.078 110.917 166.078 107.79C166.078 105.317 165.238 104.08 163.558 104.08C161.691 104.08 159.848 105.13 158.028 107.23C155.461 110.077 153.431 113.413 151.938 117.24C151.331 119.107 150.701 120.95 150.048 122.77C149.441 124.59 148.835 126.433 148.228 128.3C148.041 128.767 147.738 129 147.318 129C146.385 129 145.918 128.557 145.918 127.67L149.908 115C151.448 110.007 152.218 105.667 152.218 101.98C152.218 101.187 152.638 100.79 153.478 100.79C154.225 100.79 154.598 101.303 154.598 102.33C154.598 103.217 154.551 104.173 154.458 105.2C154.365 106.18 154.225 107.207 154.038 108.28C154.458 107.673 154.855 107.113 155.228 106.6C155.648 106.087 156.045 105.643 156.418 105.27C158.938 102.75 161.505 101.49 164.118 101.49C167.151 101.49 168.668 103.637 168.668 107.93V108.84C169.461 107.627 170.255 106.577 171.048 105.69C171.888 104.757 172.751 103.987 173.638 103.38C175.971 101.7 178.001 100.86 179.728 100.86C182.528 100.86 183.928 102.657 183.928 106.25C183.928 107.323 183.368 109.377 182.248 112.41C181.455 114.557 180.685 116.727 179.938 118.92C179.191 121.113 178.818 122.84 178.818 124.1C178.818 126.153 179.775 127.18 181.688 127.18C183.368 127.18 185.025 126.527 186.658 125.22C188.338 123.867 189.715 122.397 190.788 120.81C190.881 120.623 191.115 120.297 191.488 119.83C191.861 119.317 192.165 119.06 192.398 119.06C193.191 119.06 193.588 119.387 193.588 120.04C193.588 120.133 193.541 120.297 193.448 120.53C193.355 120.763 193.261 120.927 193.168 121.02C192.468 122.467 191.465 123.867 190.158 125.22C188.851 126.527 187.451 127.6 185.958 128.44C184.511 129.233 183.111 129.63 181.758 129.63ZM225.878 148.32C224.431 148.32 223.171 147.993 222.098 147.34C220.744 146.547 220.068 145.45 220.068 144.05C220.068 141.063 222.984 138.613 228.818 136.7C233.158 135.253 237.171 134.53 240.858 134.53C241.278 134.53 241.674 134.53 242.048 134.53C242.468 134.577 242.841 134.623 243.168 134.67C244.568 132.197 245.758 128.767 246.738 124.38C240.671 129.607 234.511 132.22 228.258 132.22C222.984 132.22 218.551 130.657 214.958 127.53C211.131 124.263 209.218 120.04 209.218 114.86C209.218 110.567 210.384 106.273 212.718 101.98C214.911 97.9667 217.734 94.4667 221.188 91.48C221.094 91.1067 221.024 90.71 220.978 90.29C220.931 89.87 220.908 89.45 220.908 89.03C220.908 86.4633 221.608 84.3167 223.008 82.59C223.241 82.31 223.521 82.17 223.848 82.17C224.688 82.17 225.108 82.5667 225.108 83.36C225.108 83.64 225.014 83.8967 224.828 84.13C223.708 85.8567 223.194 87.7233 223.288 89.73C229.541 85.11 236.378 82.8 243.798 82.8C247.484 82.8 250.821 83.4067 253.808 84.62C257.868 86.2067 259.898 88.6333 259.898 91.9C259.898 95.6333 257.541 98.5267 252.828 100.58C249.328 102.167 245.454 102.96 241.208 102.96C237.474 102.96 233.834 102.283 230.288 100.93C226.088 99.25 223.288 96.9167 221.888 93.93C218.901 96.7767 216.498 99.95 214.678 103.45C212.624 107.323 211.598 111.127 211.598 114.86C211.598 119.387 213.254 123.05 216.568 125.85C219.741 128.51 223.638 129.84 228.258 129.84C234.744 129.84 241.208 126.62 247.648 120.18C248.068 118.36 248.441 116.843 248.768 115.63C249.094 114.37 249.374 113.413 249.608 112.76C250.868 109.213 252.314 107.44 253.948 107.44C255.768 107.44 256.678 108.28 256.678 109.96C256.678 112.713 254.414 116.493 249.888 121.3L248.278 128.3C247.484 131.007 246.644 133.223 245.758 134.95C249.024 135.837 250.658 136.723 250.658 137.61C250.658 138.403 250.238 138.8 249.398 138.8C249.304 138.8 248.604 138.543 247.298 138.03C246.691 137.797 246.154 137.587 245.688 137.4C245.221 137.26 244.801 137.167 244.428 137.12C242.514 140.013 239.808 142.557 236.308 144.75C232.621 147.13 229.144 148.32 225.878 148.32ZM241.138 100.44C244.638 100.44 248.021 99.8333 251.288 98.62C255.441 96.9867 257.518 94.7933 257.518 92.04C257.518 89.5667 255.768 87.7467 252.268 86.58C249.748 85.6933 246.901 85.25 243.728 85.25C236.354 85.25 229.728 87.63 223.848 92.39C224.781 95.1433 227.184 97.2433 231.058 98.69C234.138 99.8567 237.498 100.44 241.138 100.44ZM225.598 145.8C228.584 145.8 231.571 144.937 234.558 143.21C237.358 141.577 239.738 139.477 241.698 136.91H241.488C239.761 136.91 237.964 137.027 236.098 137.26C234.278 137.54 232.388 137.96 230.428 138.52C225.341 139.967 222.798 141.88 222.798 144.26C222.798 145.287 223.731 145.8 225.598 145.8ZM283.869 129.49C282.142 129.49 280.695 128.977 279.529 127.95C278.362 126.877 277.872 125.337 278.059 123.33C275.212 127.39 271.782 129.42 267.769 129.42C265.202 129.42 263.289 128.417 262.029 126.41C261.002 124.823 260.489 122.677 260.489 119.97C260.489 119.457 260.512 118.943 260.559 118.43C260.605 117.87 260.675 117.333 260.769 116.82C261.095 114.953 261.725 113.157 262.659 111.43C263.592 109.657 264.805 107.907 266.299 106.18C269.659 102.4 273.135 100.51 276.729 100.51C278.642 100.51 280.229 101.07 281.489 102.19C282.749 103.263 283.379 104.78 283.379 106.74C283.379 107.533 283.169 108.303 282.749 109.05C283.729 109.097 284.125 109.54 283.939 110.38L281.699 116.75C280.952 118.85 280.579 120.763 280.579 122.49C280.579 124.077 280.905 125.313 281.559 126.2C282.259 127.087 283.192 127.53 284.359 127.53C285.012 127.53 285.735 127.343 286.529 126.97C287.322 126.597 288.232 125.967 289.259 125.08C289.959 124.473 290.612 123.797 291.219 123.05C291.872 122.303 292.432 121.557 292.899 120.81C293.179 120.39 293.482 119.993 293.809 119.62C294.135 119.2 294.462 118.99 294.789 118.99C295.349 118.99 295.629 119.293 295.629 119.9C295.629 120.133 295.582 120.367 295.489 120.6C295.442 120.787 295.372 120.927 295.279 121.02C294.672 122 293.995 122.957 293.249 123.89C292.502 124.823 291.709 125.687 290.869 126.48C289.749 127.507 288.582 128.277 287.369 128.79C286.155 129.257 284.989 129.49 283.869 129.49ZM262.869 120.32C262.869 124.8 264.595 127.04 268.049 127.04C270.989 127.04 273.532 125.64 275.679 122.84C276.332 121.953 277.009 120.833 277.709 119.48C278.409 118.127 279.085 116.54 279.739 114.72C279.925 114.253 280.112 113.717 280.299 113.11C280.532 112.457 280.812 111.733 281.139 110.94C280.205 111.64 279.249 111.99 278.269 111.99C276.589 111.99 275.749 111.523 275.749 110.59C275.749 109.797 276.145 109.4 276.939 109.4C277.079 109.4 277.265 109.447 277.499 109.54C277.779 109.587 277.989 109.61 278.129 109.61C278.829 109.61 279.482 109.307 280.089 108.7C280.695 108.093 280.999 107.44 280.999 106.74C280.999 104.173 279.552 102.89 276.659 102.89C273.765 102.89 270.872 104.57 267.979 107.93C265.225 111.01 263.615 114.113 263.149 117.24C263.055 117.753 262.985 118.267 262.939 118.78C262.892 119.293 262.869 119.807 262.869 120.32ZM298.818 129.91C295.225 129.91 293.428 127.017 293.428 121.23C293.428 116.377 294.478 110.427 296.578 103.38H294.338C293.591 103.38 293.218 102.983 293.218 102.19C293.218 101.397 293.591 101 294.338 101H297.348C297.955 99.18 298.585 97.4767 299.238 95.89C299.891 94.3033 300.568 92.8567 301.268 91.55C303.368 87.49 305.421 85.46 307.428 85.46C309.015 85.46 309.808 86.72 309.808 89.24C309.808 90.5933 309.575 92.04 309.108 93.58C308.781 94.6533 308.408 95.82 307.988 97.08C307.568 98.2933 307.078 99.6 306.518 101H309.948C310.741 101 311.138 101.397 311.138 102.19C311.138 102.983 310.741 103.38 309.948 103.38H305.398C303.018 108.7 299.868 114.02 295.948 119.34C295.901 119.713 295.878 120.087 295.878 120.46C295.878 120.787 295.878 121.113 295.878 121.44C295.878 125.593 297.045 127.67 299.378 127.67C301.198 127.67 302.808 127.017 304.208 125.71C305.655 124.403 306.961 122.77 308.128 120.81C308.595 120.017 308.991 119.48 309.318 119.2C309.645 118.92 309.901 118.78 310.088 118.78C310.648 118.78 310.928 119.13 310.928 119.83C310.928 119.923 310.858 120.157 310.718 120.53C310.625 120.857 310.531 121.067 310.438 121.16C309.085 123.727 307.428 125.827 305.468 127.46C303.508 129.093 301.291 129.91 298.818 129.91ZM299.938 101H303.788C304.535 99.3667 305.141 97.92 305.608 96.66C306.121 95.4 306.518 94.3267 306.798 93.44C307.171 92.04 307.358 90.8733 307.358 89.94C307.358 88.9133 307.148 88.4 306.728 88.4C305.981 88.4 304.931 89.66 303.578 92.18C302.971 93.3467 302.365 94.6767 301.758 96.17C301.151 97.6167 300.545 99.2267 299.938 101ZM296.508 114.72C297.581 112.947 298.631 111.127 299.658 109.26C300.685 107.347 301.688 105.387 302.668 103.38H299.168C298.561 105.247 298.025 107.137 297.558 109.05C297.138 110.917 296.788 112.807 296.508 114.72ZM319.662 129.91C316.162 129.91 313.456 128.813 311.542 126.62C309.629 124.427 308.672 121.58 308.672 118.08C308.672 112.853 310.422 108.607 313.922 105.34C316.956 102.447 320.292 101 323.932 101C325.846 101 327.386 101.49 328.552 102.47C329.766 103.403 330.372 104.757 330.372 106.53C330.372 109.33 328.786 111.617 325.612 113.39C322.859 114.883 319.709 115.63 316.162 115.63C314.249 115.63 312.686 115.397 311.472 114.93C311.379 115.443 311.286 115.98 311.192 116.54C311.146 117.053 311.122 117.567 311.122 118.08C311.122 120.927 311.846 123.26 313.292 125.08C314.739 126.853 316.839 127.74 319.592 127.74C324.539 127.74 328.482 125.43 331.422 120.81C331.796 120.25 332.122 119.807 332.402 119.48C332.682 119.153 333.009 118.99 333.382 118.99C333.849 118.99 334.082 119.27 334.082 119.83C334.082 120.157 334.036 120.413 333.942 120.6C333.896 120.787 333.849 120.927 333.802 121.02C332.216 123.727 330.162 125.897 327.642 127.53C325.122 129.117 322.462 129.91 319.662 129.91ZM315.952 113.25C318.939 113.25 321.599 112.667 323.932 111.5C326.639 110.193 327.992 108.49 327.992 106.39C327.992 104.383 326.569 103.38 323.722 103.38C321.156 103.38 318.776 104.337 316.582 106.25C314.622 107.93 313.129 110.053 312.102 112.62C313.176 113.04 314.459 113.25 315.952 113.25Z" fill="#6AA800"/>
<path d="M396.987 148.326L396.86 146.309L394.413 147.834C392.167 149.23 389.418 150.331 386.355 151.06C383.166 151.811 379.815 152.312 376.392 152.548C369.44 153.069 362.291 152.863 355.106 152.613C347.763 152.34 340.39 152.673 333.214 153.601C329.601 154.087 326.116 154.844 322.849 155.851C320.644 156.63 318.557 157.512 316.609 158.489C355.332 168.914 383.654 156.908 383.654 156.908C365.851 166.793 331.909 167.559 302.035 154.585C296.536 152.226 291.198 149.745 285.819 147.269C282.808 145.894 279.769 144.523 276.653 143.184C273.537 141.845 270.434 140.514 267.043 139.304C265.339 138.681 263.571 138.118 261.748 137.619C259.861 137.089 257.883 136.672 255.846 136.376C253.684 136.052 251.441 135.936 249.212 136.034C248.064 136.095 246.929 136.216 245.82 136.397C244.706 136.59 244.135 136.905 243 137.429L245.496 139.849C248.076 138.526 251.461 138.187 254.958 138.542C258.455 138.897 261.91 139.804 265.153 140.885C268.405 142.023 271.55 143.259 274.573 144.587C277.64 145.902 280.672 147.253 283.682 148.62C289.718 151.355 295.718 154.137 302.014 156.755C308.311 159.372 317.526 163.349 324.682 165.329C331.839 167.309 335.59 167.942 343.529 168.692C351.468 169.442 360.88 168.741 368.657 167.462C376.325 166.201 383.241 163.761 388.653 160.409C391.305 158.769 393.43 156.874 394.928 154.811C396.405 152.756 397.106 150.546 396.987 148.326Z" fill="#6AA800"/>
<path d="M197.372 41.8909C197.372 41.8909 210.928 51.5242 218.897 68.1584C219.691 41.0188 203.503 28.196 187.007 20C187.007 20 186.213 48.8999 201.357 62.9098C211.575 72.3573 216.706 79.4067 219 83C217.302 72.5431 207.738 49.772 197.372 41.8909Z" fill="#6AA800"/>
<path d="M223.336 79.1387C223.336 79.1387 220.059 61.1456 233.98 54.2866C247.902 47.4276 261 53.4332 261 53.4332C261 53.4332 255.27 76.5705 228.25 80C228.25 80 233.165 65.4285 247.079 61.1456C247.079 61.1456 228.25 64.5751 223.336 79.1387Z" fill="#6AA800"/>
<path d="M174.889 160.555C187.354 149.308 207.899 148.825 208 148.806C203.136 147.273 190.081 145.404 186.875 145.163C179.048 144.547 171.183 145.683 163.842 148.49C157.596 150.935 155.901 151.976 149.378 153.509C142.855 155.043 130.897 156.502 127 151C130.934 164.942 144.956 175.38 159.356 174.989C169.803 174.701 179.403 169.468 188.542 164.356C193.729 161.466 201.007 156.242 206.157 152.84C195.765 152.654 184.857 155.526 174.889 160.555Z" fill="#6AA800"/>
<path d="M302.586 41.5978C309.302 54.641 319.634 65.8514 324.163 70.6166C337.626 47.478 329.054 14.9006 285.255 20.6738C283.267 29.3798 282.176 38.2565 282 47.1724C282.283 64.991 290.896 73.5897 307.839 72.9686C310.376 72.8481 312.9 72.5367 315.388 72.037C304.851 61.4222 302.586 41.5978 302.586 41.5978Z" fill="#6AA800"/>
</svg>
